<svg width="236" height="24" viewBox="0 0 236 24" fill="none" xmlns="http://www.w3.org/2000/svg">
<g clip-path="url(#clip0_28_2)">
<path d="M233.418 20.4541V3.56982H236.071V20.4541H233.418Z" fill="white"/>
<path d="M224.058 7.62215C224.058 4.89654 225.361 3.37695 227.966 3.37695C230.571 3.37695 231.873 4.89654 231.873 7.62215V8.1528H229.365V7.45331C229.365 6.22317 228.882 5.789 228.038 5.789C227.194 5.789 226.712 6.22317 226.712 7.45331C226.712 10.9267 231.898 11.5779 231.898 16.402C231.898 19.1276 230.547 20.6472 227.942 20.6472C225.337 20.6472 223.986 19.1276 223.986 16.402V15.3648H226.495V16.5708C226.495 17.801 227.025 18.211 227.869 18.211C228.714 18.211 229.244 17.801 229.244 16.5708C229.244 13.0975 224.058 12.4462 224.058 7.62215Z" fill="white"/>
<path d="M220.459 3.56982L223.16 20.4541H220.483L220.025 17.3908H216.769L216.31 20.4541H213.874L216.576 3.56982H220.459ZM218.385 6.56076L217.106 15.0994H219.663L218.385 6.56076Z" fill="white"/>
<path d="M205.477 3.56982H213.003V5.93363L207.962 18.0421H213.003V20.4541H205.236V18.0903L210.277 5.98187H205.477V3.56982Z" fill="white"/>
<path d="M201.709 3.56982L204.411 20.4541H201.733L201.275 17.3908H198.019L197.56 20.4541H195.124L197.826 3.56982H201.709ZM199.635 6.56076L198.356 15.0994H200.913L199.635 6.56076Z" fill="white"/>
<path d="M190.429 13.4592V11.0472H194.143V16.4019C194.143 19.1275 192.792 20.6471 190.187 20.6471C187.582 20.6471 186.232 19.1275 186.232 16.4019V7.62206C186.232 4.89645 187.582 3.37686 190.187 3.37686C192.792 3.37686 194.143 4.89645 194.143 7.62206V9.26226H191.635V7.45322C191.635 6.22308 191.104 5.78891 190.26 5.78891C189.416 5.78891 188.885 6.22308 188.885 7.45322V16.5708C188.885 17.8009 189.416 18.2109 190.26 18.2109C191.104 18.2109 191.635 17.8009 191.635 16.5708V13.4592H190.429ZM191.297 0H192.865C192.865 1.71255 191.972 2.77385 190.139 2.77385C188.306 2.77385 187.486 1.71255 187.462 0H189.03C189.102 0.940699 189.464 1.13366 190.139 1.13366C190.839 1.13366 191.225 0.940699 191.297 0Z" fill="white"/>
<path d="M182.512 3.56982L185.213 20.4541H182.536L182.077 17.3908H178.821L178.363 20.4541H175.927L178.628 3.56982H182.512ZM180.437 6.56076L179.159 15.0994H181.716L180.437 6.56076Z" fill="white"/>
<path d="M167.243 3.56982L169.197 15.5577L171.006 3.56982H174.696V20.4541H172.188V8.34567L170.354 20.4541H167.846L165.868 8.51452V20.4541H163.552V3.56982H167.243Z" fill="white"/>
<path d="M150.472 7.62215C150.472 4.89654 151.775 3.37695 154.38 3.37695C156.985 3.37695 158.287 4.89654 158.287 7.62215V8.1528H155.779V7.45331C155.779 6.22317 155.296 5.789 154.452 5.789C153.608 5.789 153.125 6.22317 153.125 7.45331C153.125 10.9267 158.311 11.5779 158.311 16.402C158.311 19.1276 156.96 20.6472 154.355 20.6472C151.75 20.6472 150.4 19.1276 150.4 16.402V15.3648H152.908V16.5708C152.908 17.801 153.439 18.211 154.283 18.211C155.127 18.211 155.658 17.801 155.658 16.5708C155.658 13.0975 150.472 12.4462 150.472 7.62215Z" fill="white"/>
<path d="M143.682 7.45331V16.5708C143.682 17.801 144.213 18.2352 145.057 18.2352C145.902 18.2352 146.432 17.801 146.432 16.5708V7.45331C146.432 6.22317 145.902 5.789 145.057 5.789C144.213 5.789 143.682 6.22317 143.682 7.45331ZM141.029 16.402V7.62215C141.029 4.89654 142.452 3.37695 145.057 3.37695C147.662 3.37695 149.085 4.89654 149.085 7.62215V16.402C149.085 19.1276 147.662 20.6472 145.057 20.6472C142.452 20.6472 141.029 19.1276 141.029 16.402Z" fill="white"/>
<path d="M139.791 20.4541H137.089C136.969 20.02 136.848 19.7788 136.848 18.3798V15.7265C136.848 14.1587 136.342 13.5798 135.111 13.5798H134.195V20.4541H131.542V3.56982H135.546C138.319 3.56982 139.477 4.84821 139.477 7.45322V8.77984C139.477 10.5165 138.898 11.6502 137.741 12.2049C139.091 12.7597 139.501 14.0381 139.501 15.7989V18.4039C139.501 19.2481 139.525 19.8029 139.791 20.4541ZM135.473 5.98187H134.195V11.1678H135.232C136.221 11.1678 136.824 10.7336 136.824 9.38285V7.71854C136.824 6.4884 136.414 5.98187 135.473 5.98187Z" fill="white"/>
<path d="M122.172 5.98187V3.56982H130.373V5.98187H127.599V20.4541H124.946V5.98187H122.172Z" fill="white"/>
<path d="M119.007 3.56982L121.708 20.4541H119.031L118.573 17.3908H115.316L114.858 20.4541H112.422L115.123 3.56982H119.007ZM116.933 6.56076L115.654 15.0994H118.211L116.933 6.56076Z" fill="white"/>
<path d="M103.323 3.56982H107.327C110.1 3.56982 111.258 4.84821 111.258 7.45322V8.05623C111.258 9.7929 110.727 10.9024 109.546 11.4572C110.993 12.012 111.523 13.2662 111.523 15.0753V16.4501C111.523 19.0552 110.173 20.4541 107.495 20.4541H103.323V3.56982ZM107.158 12.8562H105.976V18.0421H107.495C108.388 18.0421 108.87 17.632 108.87 16.3778V14.9064C108.87 13.3386 108.388 12.8562 107.158 12.8562ZM107.254 5.98187H105.976V10.4442H107.013C108.002 10.4442 108.605 10.01 108.605 8.65924V7.71854C108.605 6.4884 108.195 5.98187 107.254 5.98187Z" fill="white"/>
<path d="M95.1489 20.4541V3.56982H97.8021V18.0421H102.168V20.4541H95.1489Z" fill="white"/>
<path d="M91.2118 3.56982L93.9133 20.4541H91.2359L90.7776 17.3908H87.5213L87.0631 20.4541H84.6269L87.3284 3.56982H91.2118ZM89.1374 6.56076L87.859 15.0994H90.4158L89.1374 6.56076Z" fill="white"/>
<path d="M74.9592 13.2181V10.806H79.7833V13.2181H74.9592Z" fill="white"/>
<path d="M69.879 20.4541H67.1775C67.0569 20.02 66.9363 19.7788 66.9363 18.3798V15.7265C66.9363 14.1587 66.4298 13.5798 65.1997 13.5798H64.2831V20.4541H61.6298V3.56982H65.6338C68.4077 3.56982 69.5655 4.84821 69.5655 7.45322V8.77984C69.5655 10.5165 68.9866 11.6502 67.8288 12.2049C69.1795 12.7597 69.5896 14.0381 69.5896 15.7989V18.4039C69.5896 19.2481 69.6137 19.8029 69.879 20.4541ZM65.5615 5.98187H64.2831V11.1678H65.3203C66.3092 11.1678 66.9122 10.7336 66.9122 9.38285V7.71854C66.9122 6.4884 66.5022 5.98187 65.5615 5.98187Z" fill="white"/>
<path d="M57.6929 3.56982L60.3944 20.4541H57.717L57.2587 17.3908H54.0024L53.5441 20.4541H51.108L53.8095 3.56982H57.6929ZM55.6185 6.56076L54.3401 15.0994H56.8969L55.6185 6.56076Z" fill="white"/>
<path d="M45.9062 20.4541V14.8582L42.5534 3.56982H45.3273L47.3534 11.2643L49.3795 3.56982H51.9122L48.5594 14.8582V20.4541H45.9062Z" fill="white"/>
<path d="M38.8285 20.4543V3.56996H41.4817V20.4543H38.8285ZM38.9973 0.361938H41.3129V2.6775H38.9973V0.361938Z" fill="white"/>
<path d="M37.3729 20.4541H34.6714C34.5508 20.02 34.4302 19.7788 34.4302 18.3798V15.7265C34.4302 14.1587 33.9237 13.5798 32.6935 13.5798H31.777V20.4541H29.1237V3.56982H33.1277C35.9016 3.56982 37.0594 4.84821 37.0594 7.45322V8.77984C37.0594 10.5165 36.4805 11.6502 35.3227 12.2049C36.6734 12.7597 37.0835 14.0381 37.0835 15.7989V18.4039C37.0835 19.2481 37.1076 19.8029 37.3729 20.4541ZM33.0554 5.98187H31.777V11.1678H32.8142C33.8031 11.1678 34.4061 10.7336 34.4061 9.38285V7.71854C34.4061 6.4884 33.9961 5.98187 33.0554 5.98187Z" fill="white"/>
<path d="M21.4834 13.218V20.4541H18.8301V3.56982H21.4834V10.806H24.4985V3.56982H27.1999V20.4541H24.4985V13.218H21.4834Z" fill="white"/>
<path d="M11.7231 13.4593V16.5708C11.7231 17.801 12.2538 18.211 13.098 18.211C13.9422 18.211 14.4729 17.801 14.4729 16.5708V13.4593H11.7231ZM14.4729 11.0473V7.45331C14.4729 6.22317 13.9422 5.789 13.098 5.789C12.2538 5.789 11.7231 6.22317 11.7231 7.45331V9.26234H9.2146V7.62215C9.2146 4.89654 10.5653 3.37695 13.1704 3.37695C15.7754 3.37695 17.1261 4.89654 17.1261 7.62215V16.402C17.1261 19.1276 15.7754 20.6472 13.1704 20.6472C10.5653 20.6472 9.2146 19.1276 9.2146 16.402V11.0473H14.4729Z" fill="white"/>
<path d="M0.0723614 7.62215C0.0723614 4.89654 1.37487 3.37695 3.97988 3.37695C6.58489 3.37695 7.8874 4.89654 7.8874 7.62215V8.1528H5.37887V7.45331C5.37887 6.22317 4.89646 5.789 4.05224 5.789C3.20802 5.789 2.72561 6.22317 2.72561 7.45331C2.72561 10.9267 7.91152 11.5779 7.91152 16.402C7.91152 18.9829 6.70549 20.4542 4.38993 20.6231V21.3949C5.57183 21.3949 6.17484 21.6844 6.17484 22.5286C6.17484 23.807 5.16178 23.9999 3.73867 23.9999C2.41205 23.9999 1.42311 23.7346 1.42311 22.601V22.3597H3.20802V22.5527C3.20802 22.9145 3.47335 23.0351 3.73867 23.0351C4.14872 23.0351 4.34169 22.8422 4.34169 22.4562C4.34169 22.0462 4.05224 21.8291 3.47335 21.8291H3.23214V20.599C1.08542 20.3336 0 18.8382 0 16.402V15.3648H2.50853V16.5708C2.50853 17.801 3.03918 18.211 3.8834 18.211C4.72761 18.211 5.25827 17.801 5.25827 16.5708C5.25827 13.0975 0.0723614 12.4462 0.0723614 7.62215Z" fill="white"/>
</g>
<defs>
<clipPath id="clip0_28_2">
<rect width="236" height="24" fill="white"/>
</clipPath>
</defs>
</svg>
