<svg width="318" height="32" viewBox="0 0 318 32" fill="none" xmlns="http://www.w3.org/2000/svg">
<path d="M223.864 5.94489H227.901V31.633H223.864V5.94489Z" fill="black"/>
<path d="M215.458 31.9999C213.5 31.9999 212.02 31.4494 211.017 30.3485C210.014 29.2231 209.513 27.6207 209.513 25.5412V24.0733H213.329V25.8348C213.329 27.4984 214.026 28.3302 215.421 28.3302C216.106 28.3302 216.62 28.1345 216.962 27.743C217.329 27.3271 217.513 26.6666 217.513 25.7614C217.513 24.6849 217.268 23.743 216.779 22.9357C216.289 22.1039 215.384 21.113 214.063 19.9632C212.399 18.4953 211.237 17.1742 210.577 15.9999C209.916 14.8011 209.586 13.4556 209.586 11.9632C209.586 9.93262 210.1 8.36687 211.127 7.26595C212.155 6.14057 213.647 5.57788 215.604 5.57788C217.537 5.57788 218.993 6.14057 219.971 7.26595C220.974 8.36687 221.476 9.95709 221.476 12.0366V13.1008H217.659V11.7797C217.659 10.899 217.488 10.2629 217.146 9.87146C216.803 9.45556 216.302 9.24761 215.641 9.24761C214.295 9.24761 213.623 10.0672 213.623 11.7063C213.623 12.636 213.867 13.5045 214.357 14.3118C214.87 15.1192 215.788 16.0978 217.109 17.2476C218.797 18.7155 219.959 20.0488 220.595 21.2476C221.231 22.4464 221.549 23.8531 221.549 25.4678C221.549 27.5718 221.023 29.1864 219.971 30.3118C218.944 31.4372 217.439 31.9999 215.458 31.9999Z" fill="black"/>
<path d="M198.708 5.94489H204.175L208.359 31.633H204.322L203.588 26.532V26.6054H199.001L198.267 31.633H194.524L198.708 5.94489ZM203.111 23.1192L201.313 10.422H201.24L199.478 23.1192H203.111Z" fill="black"/>
<path d="M181.485 28.0366L188.972 9.61461H181.852V5.94489H193.302V9.54121L185.816 27.9632H193.302V31.633H181.485V28.0366Z" fill="black"/>
<path d="M170.54 5.94489H176.007L180.191 31.633H176.154L175.42 26.532V26.6054H170.833L170.099 31.633H166.356L170.54 5.94489ZM174.943 23.1192L173.145 10.422H173.072L171.31 23.1192H174.943Z" fill="black"/>
<path d="M158.81 32C156.853 32 155.361 31.4495 154.333 30.3486C153.306 29.2232 152.792 27.6208 152.792 25.5413V12.0367C152.792 9.95719 153.306 8.36697 154.333 7.26606C155.361 6.14067 156.853 5.57798 158.81 5.57798C160.767 5.57798 162.26 6.14067 163.287 7.26606C164.315 8.36697 164.829 9.95719 164.829 12.0367V14.2385H161.012V11.7798C161.012 10.0917 160.315 9.24771 158.92 9.24771C157.526 9.24771 156.829 10.0917 156.829 11.7798V25.8349C156.829 27.4985 157.526 28.3303 158.92 28.3303C160.315 28.3303 161.012 27.4985 161.012 25.8349V20.8073H158.994V17.1376H164.829V25.5413C164.829 27.6208 164.315 29.2232 163.287 30.3486C162.26 31.4495 160.767 32 158.81 32ZM158.774 4.36697C157.428 4.36697 156.388 3.98777 155.654 3.22936C154.92 2.47095 154.529 1.39449 154.48 0H156.865C156.963 0.660551 157.159 1.12538 157.452 1.39449C157.77 1.63914 158.211 1.76147 158.774 1.76147C159.361 1.76147 159.813 1.63914 160.131 1.39449C160.449 1.12538 160.657 0.660551 160.755 0H163.14C163.092 1.37003 162.688 2.44648 161.929 3.22936C161.196 3.98777 160.144 4.36697 158.774 4.36697Z" fill="black"/>
<path d="M141.547 5.94489H147.015L151.199 31.633H147.162L146.428 26.532V26.6054H141.841L141.107 31.633H137.364L141.547 5.94489ZM145.951 23.1192L144.153 10.422H144.079L142.318 23.1192H145.951Z" fill="black"/>
<path d="M118.682 5.94489H124.443L127.012 24.3302H127.085L129.654 5.94489H135.416V31.633H131.599V12.1834H131.526L128.59 31.633H125.214L122.278 12.1834H122.205V31.633H118.682V5.94489Z" fill="black"/>
<path d="M104.398 31.9999C102.441 31.9999 100.961 31.4494 99.9578 30.3485C98.9548 29.2231 98.4532 27.6207 98.4532 25.5412V24.0733H102.27V25.8348C102.27 27.4984 102.967 28.3302 104.362 28.3302C105.047 28.3302 105.56 28.1345 105.903 27.743C106.27 27.3271 106.453 26.6666 106.453 25.7614C106.453 24.6849 106.209 23.743 105.719 22.9357C105.23 22.1039 104.325 21.113 103.004 19.9632C101.34 18.4953 100.178 17.1742 99.5175 15.9999C98.8569 14.8011 98.5266 13.4556 98.5266 11.9632C98.5266 9.93262 99.0404 8.36687 100.068 7.26595C101.095 6.14057 102.588 5.57788 104.545 5.57788C106.478 5.57788 107.933 6.14057 108.912 7.26595C109.915 8.36687 110.417 9.95709 110.417 12.0366V13.1008H106.6V11.7797C106.6 10.899 106.429 10.2629 106.086 9.87146C105.744 9.45556 105.242 9.24761 104.582 9.24761C103.236 9.24761 102.563 10.0672 102.563 11.7063C102.563 12.636 102.808 13.5045 103.297 14.3118C103.811 15.1192 104.728 16.0978 106.05 17.2476C107.738 18.7155 108.9 20.0488 109.536 21.2476C110.172 22.4464 110.49 23.8531 110.49 25.4678C110.49 27.5718 109.964 29.1864 108.912 30.3118C107.884 31.4372 106.38 31.9999 104.398 31.9999Z" fill="black"/>
<path d="M90.2922 31.9999C88.3105 31.9999 86.7937 31.4372 85.7417 30.3118C84.6898 29.1864 84.1638 27.5962 84.1638 25.5412V12.0366C84.1638 9.98155 84.6898 8.39134 85.7417 7.26595C86.7937 6.14057 88.3105 5.57788 90.2922 5.57788C92.2738 5.57788 93.7907 6.14057 94.8427 7.26595C95.8946 8.39134 96.4206 9.98155 96.4206 12.0366V25.5412C96.4206 27.5962 95.8946 29.1864 94.8427 30.3118C93.7907 31.4372 92.2738 31.9999 90.2922 31.9999ZM90.2922 28.3302C91.6867 28.3302 92.3839 27.4861 92.3839 25.7981V11.7797C92.3839 10.0916 91.6867 9.24761 90.2922 9.24761C88.8977 9.24761 88.2005 10.0916 88.2005 11.7797V25.7981C88.2005 27.4861 88.8977 28.3302 90.2922 28.3302Z" fill="black"/>
<path d="M69.6566 5.94489H75.6383C77.7178 5.94489 79.2346 6.43418 80.1887 7.41278C81.1429 8.3669 81.6199 9.84703 81.6199 11.8531V13.4311C81.6199 16.0978 80.7392 17.7859 78.9777 18.4953V18.5687C79.9563 18.8623 80.6413 19.4617 81.0328 20.3669C81.4487 21.2721 81.6566 22.4831 81.6566 23.9999V28.5137C81.6566 29.2476 81.6811 29.847 81.73 30.3119C81.7789 30.7522 81.9013 31.1926 82.097 31.633H77.9869C77.8401 31.2171 77.7422 30.8256 77.6933 30.4586C77.6444 30.0917 77.6199 29.4311 77.6199 28.477V23.7797C77.6199 22.6054 77.4242 21.7859 77.0328 21.321C76.6658 20.8562 76.0175 20.6238 75.0878 20.6238H73.6933V31.633H69.6566V5.94489ZM75.1612 16.9541C75.9685 16.9541 76.5679 16.7461 76.9594 16.3302C77.3753 15.9143 77.5832 15.2171 77.5832 14.2385V12.2568C77.5832 11.3271 77.412 10.6544 77.0695 10.2385C76.7514 9.82256 76.2377 9.61461 75.5282 9.61461H73.6933V16.9541H75.1612Z" fill="black"/>
<path d="M59.4452 9.61461H55.225V5.94489H67.7021V9.61461H63.4819V31.633H59.4452V9.61461Z" fill="black"/>
<path d="M46.3638 5.94489H51.8317L56.0152 31.633H51.9785L51.2445 26.532V26.6054H46.6574L45.9234 31.633H42.1803L46.3638 5.94489ZM50.7675 23.1192L48.9693 10.422H48.8959L47.1344 23.1192H50.7675Z" fill="black"/>
<path d="M28.408 5.94489H34.4998C36.5793 5.94489 38.0961 6.43418 39.0502 7.41278C40.0044 8.3669 40.4814 9.84703 40.4814 11.8531V12.8807C40.4814 14.2018 40.2612 15.2782 39.8209 16.11C39.405 16.9418 38.7566 17.5412 37.8759 17.9082V17.9816C39.882 18.6666 40.8851 20.4525 40.8851 23.3394V25.5412C40.8851 27.5229 40.3591 29.0397 39.3071 30.0917C38.2796 31.1192 36.7628 31.633 34.7566 31.633H28.408V5.94489ZM34.0227 16.4036C34.83 16.4036 35.4294 16.1957 35.8209 15.7797C36.2368 15.3638 36.4447 14.6666 36.4447 13.688V12.2568C36.4447 11.3271 36.2735 10.6544 35.931 10.2385C35.6129 9.82256 35.0992 9.61461 34.3897 9.61461H32.4447V16.4036H34.0227ZM34.7566 27.9632C35.4661 27.9632 35.9921 27.7797 36.3346 27.4128C36.6771 27.0213 36.8484 26.3608 36.8484 25.4311V23.1926C36.8484 22.0183 36.6404 21.2109 36.2245 20.7706C35.8331 20.3057 35.1725 20.0733 34.2429 20.0733H32.4447V27.9632H34.7566Z" fill="black"/>
<path d="M15.7933 5.94489H19.83V27.9632H26.4722V31.633H15.7933V5.94489Z" fill="black"/>
<path d="M4.18349 5.94489H9.65138L13.8349 31.633H9.79816L9.06422 26.532V26.6054H4.47706L3.74312 31.633H0L4.18349 5.94489ZM8.58716 23.1192L6.78899 10.422H6.7156L4.95413 23.1192H8.58716Z" fill="black"/>
</svg>
