<svg width="318" height="32" viewBox="0 0 318 32" fill="none" xmlns="http://www.w3.org/2000/svg">
<g clip-path="url(#clip0_26_2)">
<path d="M313.223 27.2722V4.75977H316.761V27.2722H313.223Z" fill="black"/>
<path d="M300.744 10.163C300.744 6.5288 302.481 4.50269 305.954 4.50269C309.428 4.50269 311.164 6.5288 311.164 10.163V10.8705H307.82V9.93783C307.82 8.29764 307.177 7.71875 306.051 7.71875C304.925 7.71875 304.282 8.29764 304.282 9.93783C304.282 14.569 311.197 15.4373 311.197 21.8694C311.197 25.5036 309.396 27.5297 305.922 27.5297C302.449 27.5297 300.648 25.5036 300.648 21.8694V20.4865H303.993V22.0945C303.993 23.7347 304.7 24.2815 305.826 24.2815C306.951 24.2815 307.659 23.7347 307.659 22.0945C307.659 17.4634 300.744 16.5951 300.744 10.163Z" fill="black"/>
<path d="M295.945 4.75977L299.547 27.2722H295.977L295.366 23.1878H291.025L290.414 27.2722H287.165L290.767 4.75977H295.945ZM293.179 8.74768L291.475 20.1325H294.884L293.179 8.74768Z" fill="black"/>
<path d="M275.97 4.75977H286.004V7.91151L279.282 24.0561H286.004V27.2722H275.648V24.1205L282.37 7.97583H275.97V4.75977Z" fill="black"/>
<path d="M270.945 4.75977L274.547 27.2722H270.978L270.367 23.1878H266.025L265.414 27.2722H262.166L265.768 4.75977H270.945ZM268.18 8.74768L266.475 20.1325H269.884L268.18 8.74768Z" fill="black"/>
<path d="M255.905 17.9456V14.7296H260.857V21.8692C260.857 25.5034 259.056 27.5295 255.583 27.5295C252.11 27.5295 250.309 25.5034 250.309 21.8692V10.1628C250.309 6.52861 252.11 4.50249 255.583 4.50249C259.056 4.50249 260.857 6.52861 260.857 10.1628V12.3497H257.513V9.93763C257.513 8.29744 256.805 7.71855 255.68 7.71855C254.554 7.71855 253.846 8.29744 253.846 9.93763V22.0943C253.846 23.7345 254.554 24.2813 255.68 24.2813C256.805 24.2813 257.513 23.7345 257.513 22.0943V17.9456H255.905ZM257.063 0H259.153C259.153 2.28341 257.963 3.69847 255.519 3.69847C253.075 3.69847 251.981 2.28341 251.949 0H254.039C254.136 1.25427 254.618 1.51155 255.519 1.51155C256.451 1.51155 256.966 1.25427 257.063 0Z" fill="black"/>
<path d="M245.349 4.75977L248.951 27.2722H245.381L244.77 23.1878H240.428L239.817 27.2722H236.569L240.171 4.75977H245.349ZM242.583 8.74768L240.878 20.1325H244.287L242.583 8.74768Z" fill="black"/>
<path d="M224.991 4.75977L227.596 20.7436L230.008 4.75977H234.928V27.2722H231.584V11.1276L229.139 27.2722H225.795L223.157 11.3527V27.2722H220.07V4.75977H224.991Z" fill="black"/>
<path d="M202.629 10.163C202.629 6.5288 204.366 4.50269 207.839 4.50269C211.313 4.50269 213.049 6.5288 213.049 10.163V10.8705H209.705V9.93783C209.705 8.29764 209.061 7.71875 207.936 7.71875C206.81 7.71875 206.167 8.29764 206.167 9.93783C206.167 14.569 213.082 15.4373 213.082 21.8694C213.082 25.5036 211.281 27.5297 207.807 27.5297C204.334 27.5297 202.533 25.5036 202.533 21.8694V20.4865H205.878V22.0945C205.878 23.7347 206.585 24.2815 207.711 24.2815C208.836 24.2815 209.544 23.7347 209.544 22.0945C209.544 17.4634 202.629 16.5951 202.629 10.163Z" fill="black"/>
<path d="M193.577 9.93783V22.0945C193.577 23.7347 194.284 24.3136 195.41 24.3136C196.535 24.3136 197.243 23.7347 197.243 22.0945V9.93783C197.243 8.29764 196.535 7.71875 195.41 7.71875C194.284 7.71875 193.577 8.29764 193.577 9.93783ZM190.039 21.8694V10.163C190.039 6.5288 191.936 4.50269 195.41 4.50269C198.883 4.50269 200.781 6.5288 200.781 10.163V21.8694C200.781 25.5036 198.883 27.5297 195.41 27.5297C191.936 27.5297 190.039 25.5036 190.039 21.8694Z" fill="black"/>
<path d="M188.388 27.2722H184.786C184.625 26.6933 184.464 26.3717 184.464 24.5064V20.9687C184.464 18.8783 183.789 18.1064 182.149 18.1064H180.926V27.2722H177.389V4.75977H182.727C186.426 4.75977 187.97 6.46428 187.97 9.93763V11.7065C187.97 14.022 187.198 15.5336 185.654 16.2733C187.455 17.013 188.002 18.7175 188.002 21.0652V24.5385C188.002 25.6642 188.034 26.4039 188.388 27.2722ZM182.631 7.97583H180.926V14.8904H182.309C183.628 14.8904 184.432 14.3115 184.432 12.5105V10.2914C184.432 8.6512 183.885 7.97583 182.631 7.97583Z" fill="black"/>
<path d="M164.896 7.97583V4.75977H175.831V7.97583H172.132V27.2722H168.595V7.97583H164.896Z" fill="black"/>
<path d="M160.676 4.75977L164.278 27.2722H160.708L160.097 23.1878H155.755L155.144 27.2722H151.896L155.498 4.75977H160.676ZM157.91 8.74768L156.206 20.1325H159.615L157.91 8.74768Z" fill="black"/>
<path d="M139.763 4.75977H145.102C148.8 4.75977 150.344 6.46428 150.344 9.93763V10.7416C150.344 13.0572 149.637 14.5366 148.061 15.2763C149.99 16.016 150.698 17.6883 150.698 20.1004V21.9335C150.698 25.4069 148.897 27.2722 145.327 27.2722H139.763V4.75977ZM144.877 17.1416H143.301V24.0561H145.327C146.517 24.0561 147.16 23.5094 147.16 21.8371V19.8753C147.16 17.7848 146.517 17.1416 144.877 17.1416ZM145.005 7.97583H143.301V13.9255H144.684C146.002 13.9255 146.806 13.3467 146.806 11.5457V10.2914C146.806 8.6512 146.26 7.97583 145.005 7.97583Z" fill="black"/>
<path d="M128.865 27.2722V4.75977H132.403V24.0561H138.224V27.2722H128.865Z" fill="black"/>
<path d="M123.616 4.75977L127.218 27.2722H123.648L123.037 23.1878H118.695L118.084 27.2722H114.836L118.438 4.75977H123.616ZM120.85 8.74768L119.145 20.1325H122.554L120.85 8.74768Z" fill="black"/>
<path d="M101.946 17.6241V14.4081H108.378V17.6241H101.946Z" fill="black"/>
<path d="M95.172 27.2722H91.57C91.4092 26.6933 91.2484 26.3717 91.2484 24.5064V20.9687C91.2484 18.8783 90.5731 18.1064 88.9329 18.1064H87.7108V27.2722H84.1731V4.75977H89.5118C93.2102 4.75977 94.754 6.46428 94.754 9.93763V11.7065C94.754 14.022 93.9821 15.5336 92.4384 16.2733C94.2394 17.013 94.7861 18.7175 94.7861 21.0652V24.5385C94.7861 25.6642 94.8183 26.4039 95.172 27.2722ZM89.4153 7.97583H87.7108V14.8904H89.0937C90.4123 14.8904 91.2163 14.3115 91.2163 12.5105V10.2914C91.2163 8.6512 90.6695 7.97583 89.4153 7.97583Z" fill="black"/>
<path d="M78.9238 4.75977L82.5258 27.2722H78.9559L78.3449 23.1878H74.0032L73.3921 27.2722H70.1439L73.7459 4.75977H78.9238ZM76.158 8.74768L74.4534 20.1325H77.8625L76.158 8.74768Z" fill="black"/>
<path d="M63.2082 27.2722V19.8109L58.7379 4.75977H62.4363L65.1378 15.019L67.8393 4.75977H71.2162L66.7459 19.8109V27.2722H63.2082Z" fill="black"/>
<path d="M53.7713 27.2724V4.75997H57.309V27.2724H53.7713ZM53.9964 0.482605H57.0838V3.57002H53.9964V0.482605Z" fill="black"/>
<path d="M51.8305 27.2722H48.2285C48.0677 26.6933 47.9069 26.3717 47.9069 24.5064V20.9687C47.9069 18.8783 47.2316 18.1064 45.5914 18.1064H44.3693V27.2722H40.8316V4.75977H46.1703C49.8687 4.75977 51.4125 6.46428 51.4125 9.93763V11.7065C51.4125 14.022 50.6406 15.5336 49.0969 16.2733C50.8979 17.013 51.4446 18.7175 51.4446 21.0652V24.5385C51.4446 25.6642 51.4768 26.4039 51.8305 27.2722ZM46.0738 7.97583H44.3693V14.8904H45.7522C47.0708 14.8904 47.8748 14.3115 47.8748 12.5105V10.2914C47.8748 8.6512 47.3281 7.97583 46.0738 7.97583Z" fill="black"/>
<path d="M30.6445 17.624V27.2722H27.1068V4.75977H30.6445V14.408H34.6646V4.75977H38.2666V27.2722H34.6646V17.624H30.6445Z" fill="black"/>
<path d="M17.6308 17.9458V22.0945C17.6308 23.7347 18.3384 24.2815 19.464 24.2815C20.5896 24.2815 21.2972 23.7347 21.2972 22.0945V17.9458H17.6308ZM21.2972 14.7298V9.93783C21.2972 8.29764 20.5896 7.71875 19.464 7.71875C18.3384 7.71875 17.6308 8.29764 17.6308 9.93783V12.3499H14.2861V10.163C14.2861 6.5288 16.0871 4.50269 19.5605 4.50269C23.0338 4.50269 24.8348 6.5288 24.8348 10.163V21.8694C24.8348 25.5036 23.0338 27.5297 19.5605 27.5297C16.0871 27.5297 14.2861 25.5036 14.2861 21.8694V14.7298H21.2972Z" fill="black"/>
<path d="M2.09648 10.163C2.09648 6.5288 3.83316 4.50269 7.30651 4.50269C10.7799 4.50269 12.5165 6.5288 12.5165 10.163V10.8705H9.17182V9.93783C9.17182 8.29764 8.52861 7.71875 7.40299 7.71875C6.27737 7.71875 5.63415 8.29764 5.63415 9.93783C5.63415 14.569 12.5487 15.4373 12.5487 21.8694C12.5487 25.3106 10.9407 27.2724 7.85324 27.4975V28.5267C9.42911 28.5267 10.2331 28.9126 10.2331 30.0382C10.2331 31.7427 8.88238 32 6.9849 32C5.21606 32 3.89748 31.6462 3.89748 30.1347V29.8131H6.27736V30.0704C6.27736 30.5528 6.63113 30.7136 6.9849 30.7136C7.53163 30.7136 7.78892 30.4563 7.78892 29.9417C7.78892 29.395 7.40299 29.1056 6.63113 29.1056H6.30953V27.4654C3.44723 27.1116 2 25.1176 2 21.8694V20.4865H5.34471V22.0945C5.34471 23.7347 6.05224 24.2815 7.17786 24.2815C8.30349 24.2815 9.01102 23.7347 9.01102 22.0945C9.01102 17.4634 2.09648 16.5951 2.09648 10.163Z" fill="black"/>
</g>
<defs>
<clipPath id="clip0_26_2">
<rect width="318" height="32" fill="white"/>
</clipPath>
</defs>
</svg>
