<svg width="318" height="32" viewBox="0 0 318 32" fill="none" xmlns="http://www.w3.org/2000/svg">
<path d="M215.826 0.0423584C217.265 0.0423584 218.62 0.268108 219.89 0.719608C221.159 1.17111 221.992 1.39686 222.387 1.39686C223.092 1.39686 223.516 1.11467 223.657 0.550296H224.419V8.80426H223.614C223.05 6.20814 222.091 4.24694 220.736 2.92067C219.382 1.56617 217.759 0.888921 215.868 0.888921C214.345 0.888921 213.089 1.25576 212.101 1.98945C211.142 2.72314 210.662 3.83777 210.662 5.33336C210.662 6.85717 211.283 8.11291 212.524 9.10056C213.794 10.06 215.685 11.0335 218.196 12.0212C219.664 12.6138 220.863 13.1641 221.794 13.672C222.725 14.1517 223.643 14.7725 224.546 15.5344C225.477 16.2963 226.154 17.1993 226.577 18.2434C227.001 19.2875 227.212 20.5009 227.212 21.8836C227.212 24.8466 226.196 27.2593 224.165 29.1217C222.161 30.9842 219.593 31.9154 216.461 31.9154C214.74 31.9154 213.061 31.5909 211.424 30.9418C209.815 30.2928 208.814 29.9683 208.419 29.9683C207.628 29.9683 207.05 30.321 206.683 31.0265H205.921V20.5715H206.725C207.177 23.6473 208.278 26.1729 210.027 28.1482C211.777 30.0953 213.921 31.0688 216.461 31.0688C218.38 31.0688 219.847 30.5891 220.863 29.6297C221.879 28.6702 222.387 27.4004 222.387 25.8201C222.387 25.284 222.302 24.776 222.133 24.2963C221.992 23.8166 221.837 23.4074 221.667 23.0688C221.498 22.7302 221.188 22.3775 220.736 22.0106C220.285 21.6438 219.918 21.3616 219.636 21.1641C219.382 20.9383 218.888 20.6561 218.154 20.3175C217.449 19.9506 216.927 19.6967 216.588 19.5556C216.278 19.4145 215.671 19.1464 214.768 18.7514C212.172 17.6508 210.154 16.4092 208.715 15.0265C207.276 13.6156 206.556 11.6967 206.556 9.26987C206.556 6.41978 207.473 4.1764 209.308 2.53971C211.142 0.87481 213.315 0.0423584 215.826 0.0423584Z" fill="black"/>
<path d="M188.157 0C191.967 0 195.353 1.59436 198.316 4.78307C201.307 7.94356 202.803 11.866 202.803 16.5503C202.803 18.9489 202.38 21.1499 201.533 23.1534C200.715 25.1287 199.614 26.7513 198.231 28.0212C196.849 29.291 195.283 30.2787 193.533 30.9841C191.812 31.6614 190.02 32 188.157 32C185.674 32 183.332 31.3933 181.131 30.1799C178.93 28.9665 177.11 27.1464 175.671 24.7196C174.231 22.2645 173.512 19.4427 173.512 16.254C173.512 11.5697 174.993 7.68959 177.956 4.61376C180.919 1.53792 184.32 0 188.157 0ZM188.157 0.846561C185.928 0.846561 184.221 1.97531 183.036 4.2328C181.879 6.46208 181.3 10.1446 181.3 15.2804V16.7619C181.3 19.5556 181.455 21.9118 181.766 23.8307C182.104 25.7213 182.584 27.2028 183.205 28.2751C183.826 29.3192 184.531 30.067 185.321 30.5185C186.14 30.9418 187.085 31.1534 188.157 31.1534C189.258 31.1534 190.203 30.9418 190.993 30.5185C191.812 30.067 192.531 29.3192 193.152 28.2751C193.773 27.2028 194.238 25.7213 194.549 23.8307C194.859 21.9118 195.014 19.5556 195.014 16.7619V15.2804C195.014 10.1164 194.436 6.41975 193.279 4.19048C192.15 1.9612 190.443 0.846561 188.157 0.846561Z" fill="black"/>
<path d="M168.483 31.1535C166.254 31.1535 164.547 30.5609 163.362 29.3757C162.177 28.1905 161.542 26.5538 161.457 24.4656C161.401 23.9295 161.372 23.1676 161.372 22.1799C161.372 21.1923 161.358 20.4304 161.33 19.8942C161.245 18.3704 160.85 17.2981 160.145 16.6773C159.439 16.0282 158.282 15.7037 156.674 15.7037H153.796V30.1799H158.155V31.0265H142.621V30.1799H146.6V1.39685H142.621V0.550293H155.489C158.988 0.550293 161.866 1.22754 164.124 2.58204C166.409 3.90832 167.552 5.82719 167.552 8.33865C167.552 10.2011 166.776 11.6967 165.224 12.8254C163.7 13.926 161.767 14.6596 159.425 15.0265V15.1535C165.21 15.6332 168.244 18.1305 168.526 22.6455C168.582 24.1693 168.667 25.8342 168.78 27.6402C168.864 29.164 169.429 29.926 170.473 29.926C171.178 29.926 171.714 29.6579 172.081 29.1217L172.589 29.672C171.884 30.6596 170.515 31.1535 168.483 31.1535ZM153.796 1.39685V14.8572H156.081C157.746 14.8572 158.96 14.3775 159.721 13.418C160.512 12.4304 160.907 10.7372 160.907 8.33865V7.87304C160.907 5.58733 160.455 3.93654 159.552 2.92066C158.677 1.90479 157.224 1.39685 155.192 1.39685H153.796Z" fill="black"/>
<path d="M113.283 0.550293H140.246V10.5397H139.442C138.906 7.46387 137.989 5.17816 136.691 3.68257C135.393 2.15876 133.573 1.39685 131.23 1.39685H130.342V30.1799H134.447V31.0265H119.04V30.1799H123.188V1.39685H122.172C119.83 1.39685 118.01 2.15876 116.712 3.68257C115.442 5.17816 114.553 7.46387 114.045 10.5397H113.283V0.550293Z" fill="black"/>
<path d="M96.9841 8.84659L93.0053 20.3598H101.048L97.0688 8.84659H96.9841ZM94.0635 30.1799V31.0265H85.9788V30.1799H88.6032L99.0582 0.0423584H101.556L111.841 30.1799H114.55V31.0265H100.794V30.1799H104.392L101.302 21.2064H92.709L89.619 30.1799H94.0635Z" fill="black"/>
<path d="M72.6418 31.0265H58.4196V30.1799H62.3138V1.39685H58.4196V0.550293H71.5836C73.7847 0.550293 75.7459 0.804261 77.4672 1.3122C79.2168 1.82013 80.6559 2.6808 81.7847 3.89421C82.9134 5.07939 83.4778 6.54677 83.4778 8.29633C83.4778 10.2434 82.7159 11.739 81.1921 12.7831C79.6683 13.8272 77.7353 14.5044 75.3932 14.8148V14.9418C78.2433 15.224 80.6136 16 82.5043 17.2699C84.4231 18.5397 85.3826 20.4586 85.3826 23.0265C85.3826 25.6226 84.1974 27.612 81.827 28.9947C79.4567 30.3492 76.3949 31.0265 72.6418 31.0265ZM69.5519 1.39685V14.6032H72.0493C73.7988 14.6032 75.0263 14.1235 75.7318 13.164C76.4655 12.2046 76.8323 10.582 76.8323 8.29633V7.83071C76.8323 5.43213 76.3808 3.76722 75.4778 2.83601C74.5748 1.87657 73.1921 1.39685 71.3297 1.39685H69.5519ZM69.5519 30.1799H72.3455C74.5184 30.1799 76.014 29.6014 76.8323 28.4445C77.6789 27.2875 78.1022 25.4533 78.1022 22.9418V22.3916C78.1022 19.9083 77.6224 18.1305 76.663 17.0582C75.7318 15.9577 74.1092 15.4074 71.7953 15.4074H69.5519V30.1799Z" fill="black"/>
<path d="M30.0218 31.0265V30.1799H33.916V1.39685H30.0218V0.550293H45.2599V1.39685H41.1541V30.1799H43.8631C47.5597 30.1799 50.1558 29.5027 51.6514 28.1482C53.147 26.7655 54.2334 24.1411 54.9107 20.2752H55.7149V31.0265H30.0218Z" fill="black"/>
<path d="M11.0053 8.84659L7.02645 20.3598H15.0688L11.0899 8.84659H11.0053ZM8.08466 30.1799V31.0265H0V30.1799H2.62434L13.0794 0.0423584H15.5767L25.8624 30.1799H28.5714V31.0265H14.8148V30.1799H18.4127L15.3228 21.2064H6.73016L3.64021 30.1799H8.08466Z" fill="black"/>
</svg>
