<svg width="318" height="32" viewBox="0 0 318 32" fill="none" xmlns="http://www.w3.org/2000/svg">
<path d="M314.742 20.5551C315.969 20.6087 316.869 21.7511 316.478 22.915C315.636 25.4213 314.297 27.4574 312.463 29.0236C310.105 31.0074 307.101 31.9992 303.449 31.9992C300.459 31.9992 297.814 31.3092 295.514 29.9292C293.243 28.5492 291.475 26.6516 290.21 24.2366C288.973 21.8215 288.355 19.0902 288.355 16.0427C288.355 12.9951 288.973 10.2495 290.21 7.80565C291.446 5.36186 293.214 3.44994 295.514 2.06992C297.814 0.689891 300.459 -0.00012207 303.449 -0.00012207C307.014 -0.00012207 309.976 0.963021 312.333 2.88931C314.144 4.3687 315.48 6.29746 316.341 8.67561C316.762 9.84077 315.861 11.0038 314.623 11.0585L310.839 11.2257C309.879 11.2682 309.056 10.6061 308.656 9.73274C308.264 8.87635 307.736 8.16211 307.072 7.59002C306.066 6.67001 304.801 6.21 303.277 6.21C301.696 6.21 300.373 6.62688 299.309 7.46065C298.246 8.26566 297.441 9.41568 296.894 10.9107C296.377 12.4057 296.118 14.1164 296.118 16.0427C296.118 17.969 296.377 19.6653 296.894 21.1315C297.441 22.5978 298.246 23.7478 299.309 24.5816C300.373 25.3866 301.696 25.7891 303.277 25.7891C304.887 25.7891 306.195 25.3004 307.201 24.3228C307.85 23.6923 308.356 22.9122 308.718 21.9825C309.079 21.0541 309.925 20.3445 310.92 20.388L314.742 20.5551Z" fill="white"/>
<path d="M283.351 0.690765C284.455 0.690765 285.351 1.5862 285.351 2.69077V29.3101C285.351 30.4147 284.455 31.3101 283.351 31.3101H279.761C278.656 31.3101 277.761 30.4147 277.761 29.3101V2.69077C277.761 1.5862 278.656 0.690765 279.761 0.690765H283.351Z" fill="white"/>
<path d="M247.618 0.690765C248.475 0.690765 249.236 1.23589 249.512 2.04654L254.224 15.8956C254.839 17.7051 257.4 17.7027 258.012 15.8921L262.693 2.05006C262.968 1.2376 263.73 0.690765 264.587 0.690765H271.201C272.305 0.690765 273.201 1.5862 273.201 2.69077V29.3101C273.201 30.4147 272.305 31.3101 271.201 31.3101H267.611C266.506 31.3101 265.611 30.4147 265.611 29.3101V24.2684C265.611 22.0169 262.467 21.4824 261.723 23.6073L259.524 29.8849C259.244 30.6869 258.487 31.2239 257.637 31.2239H254.609C253.759 31.2239 253.002 30.6869 252.722 29.8849L250.523 23.6073C249.779 21.4824 246.635 22.0169 246.635 24.2684V29.3101C246.635 30.4147 245.74 31.3101 244.635 31.3101H241.045C239.941 31.3101 239.045 30.4147 239.045 29.3101V2.69077C239.045 1.5862 239.941 0.690765 241.045 0.690765H247.618Z" fill="white"/>
<path d="M217.253 2.01239C217.539 1.21936 218.291 0.690765 219.134 0.690765H224.561C225.404 0.690765 226.157 1.21936 226.443 2.01239L236.041 28.6317C236.511 29.9352 235.545 31.3101 234.159 31.3101H230.927C230.074 31.3101 229.316 30.7696 229.037 29.9638L227.984 26.9206C227.706 26.1149 226.947 25.5744 226.094 25.5744H217.568C216.711 25.5744 215.948 26.1211 215.674 26.9334L214.653 29.9511C214.378 30.7634 213.616 31.3101 212.758 31.3101H209.536C208.15 31.3101 207.185 29.9352 207.655 28.6317L217.253 2.01239ZM222.703 19.5368C224.072 19.5368 225.036 18.192 224.597 16.8951L223.752 14.4012C223.14 12.5934 220.585 12.5888 219.966 14.3943L219.111 16.8883C218.666 18.1864 219.631 19.5368 221.003 19.5368H222.703Z" fill="white"/>
<path d="M193.361 0.690765C195.517 0.690765 197.443 1.05015 199.14 1.76891C200.836 2.45892 202.173 3.49395 203.15 4.87397C204.128 6.254 204.617 7.92153 204.617 9.87657C204.617 11.3141 204.343 12.5791 203.797 13.6716C203.251 14.7354 202.46 15.5979 201.425 16.2592C200.436 16.9093 199.266 17.351 197.915 17.5843C197.871 17.592 197.825 17.5812 197.789 17.5547V17.5547C197.657 17.4591 197.725 17.2538 197.888 17.2588C199.87 17.319 201.35 17.7333 202.331 18.5017C203.395 19.3355 203.998 20.7155 204.142 22.6418L204.692 29.1416C204.791 30.3085 203.87 31.3101 202.699 31.3101H199.107C198.056 31.3101 197.185 30.4978 197.111 29.4501L196.724 23.9356C196.638 22.6706 196.236 21.7937 195.517 21.3049C194.798 20.7874 193.634 20.5286 192.024 20.5286H188.935C187.83 20.5286 186.935 21.4241 186.935 22.5286V29.3101C186.935 30.4147 186.039 31.3101 184.935 31.3101H181.345C180.24 31.3101 179.345 30.4147 179.345 29.3101V2.69077C179.345 1.5862 180.24 0.690765 181.345 0.690765H193.361ZM192.11 14.3185C193.663 14.3185 194.841 14.0023 195.646 13.3698C196.451 12.7372 196.854 11.8172 196.854 10.6097C196.854 9.40218 196.451 8.48217 195.646 7.84965C194.841 7.21714 193.663 6.90088 192.11 6.90088H188.935C187.83 6.90088 186.935 7.79632 186.935 8.90088V12.3185C186.935 13.4231 187.83 14.3185 188.935 14.3185H192.11Z" fill="white"/>
<path d="M173.596 0.690765C174.7 0.690765 175.596 1.5862 175.596 2.69077V4.90088C175.596 6.00545 174.7 6.90088 173.596 6.90088H163.149C162.044 6.90088 161.149 7.79632 161.149 8.90088V10.8954C161.149 11.9999 162.044 12.8954 163.149 12.8954H173.078C174.183 12.8954 175.078 13.7908 175.078 14.8954V17.0192C175.078 18.1238 174.183 19.0192 173.078 19.0192H163.149C162.044 19.0192 161.149 19.9147 161.149 21.0192V23.1C161.149 24.2046 162.044 25.1 163.149 25.1H173.941C175.045 25.1 175.941 25.9954 175.941 27.1V29.3101C175.941 30.4147 175.045 31.3101 173.941 31.3101H155.558C154.454 31.3101 153.558 30.4147 153.558 29.3101V2.69077C153.558 1.5862 154.454 0.690765 155.558 0.690765H173.596Z" fill="white"/>
<path d="M148.275 20.5551C149.501 20.6087 150.402 21.7511 150.01 22.915C149.168 25.4213 147.83 27.4574 145.995 29.0236C143.638 31.0074 140.633 31.9992 136.982 31.9992C133.992 31.9992 131.347 31.3092 129.047 29.9292C126.776 28.5492 125.007 26.6516 123.742 24.2366C122.506 21.8215 121.888 19.0902 121.888 16.0427C121.888 12.9951 122.506 10.2495 123.742 7.80565C124.979 5.36186 126.747 3.44994 129.047 2.06992C131.347 0.689891 133.992 -0.00012207 136.982 -0.00012207C140.547 -0.00012207 143.508 0.963021 145.866 2.88931C147.676 4.3687 149.012 6.29746 149.873 8.67561C150.295 9.84077 149.393 11.0038 148.155 11.0585L144.372 11.2257C143.412 11.2682 142.589 10.6061 142.189 9.73274C141.797 8.87635 141.269 8.16211 140.605 7.59002C139.598 6.67001 138.333 6.21 136.809 6.21C135.228 6.21 133.906 6.62688 132.842 7.46065C131.778 8.26566 130.973 9.41568 130.427 10.9107C129.909 12.4057 129.651 14.1164 129.651 16.0427C129.651 17.969 129.909 19.6653 130.427 21.1315C130.973 22.5978 131.778 23.7478 132.842 24.5816C133.906 25.3866 135.228 25.7891 136.809 25.7891C138.419 25.7891 139.728 25.3004 140.734 24.3228C141.383 23.6923 141.889 22.9122 142.251 21.9825C142.612 21.0541 143.458 20.3445 144.453 20.388L148.275 20.5551Z" fill="white"/>
<path d="M90.7293 2.69077C90.7293 1.5862 91.6248 0.690765 92.7293 0.690765H96.3195C97.424 0.690765 98.3195 1.5862 98.3195 2.69077V26.3817C98.3195 27.5328 96.9199 28.1004 96.1181 27.2746V27.2746C95.329 26.4618 95.905 25.1 97.0377 25.1H109.99C111.095 25.1 111.99 25.9954 111.99 27.1V29.3101C111.99 30.4147 111.095 31.3101 109.99 31.3101H92.7293C91.6248 31.3101 90.7293 30.4147 90.7293 29.3101V2.69077Z" fill="white"/>
<path d="M86.8056 20.097C86.8056 22.5121 86.2737 24.6253 85.2099 26.4365C84.1461 28.2191 82.6367 29.5991 80.6817 30.5766C78.7267 31.5254 76.4266 31.9998 73.7816 31.9998C71.1365 31.9998 68.8365 31.5254 66.8814 30.5766C64.9264 29.5991 63.417 28.2191 62.3532 26.4365C61.3182 24.6253 60.8007 22.5121 60.8007 20.097V2.64729C60.8007 1.54272 61.6961 0.647293 62.8007 0.647293H66.3908C67.4954 0.647293 68.3908 1.54272 68.3908 2.64729V20.097C68.3908 21.9658 68.8508 23.389 69.7709 24.3665C70.7196 25.3153 72.0565 25.7897 73.7816 25.7897C75.5066 25.7897 76.8435 25.3153 77.7923 24.3665C78.741 23.389 79.2154 21.9658 79.2154 20.097V2.64729C79.2154 1.54272 80.1108 0.647293 81.2154 0.647293H84.8056C85.9101 0.647293 86.8056 1.54272 86.8056 2.64729V20.097Z" fill="white"/>
<path d="M43.1025 31.9992C40.0262 31.9992 37.3524 31.3524 35.0811 30.0586C32.8098 28.7648 31.056 26.9248 29.8198 24.5385C28.6122 22.1234 28.0085 19.2915 28.0085 16.0427C28.0085 12.7651 28.6122 9.91882 29.8198 7.50377C31.056 5.08872 32.8098 3.23431 35.0811 1.94054C37.3524 0.646765 40.0262 -0.00012207 43.1025 -0.00012207C46.1788 -0.00012207 48.8526 0.646765 51.1239 1.94054C53.3952 3.23431 55.1346 5.08872 56.3421 7.50377C57.5784 9.91882 58.1966 12.7651 58.1966 16.0427C58.1966 19.2915 57.5784 22.1234 56.3421 24.5385C55.1346 26.9248 53.3952 28.7648 51.1239 30.0586C48.8526 31.3524 46.1788 31.9992 43.1025 31.9992ZM43.1025 25.7891C44.655 25.7891 45.9776 25.4154 47.0701 24.6679C48.1626 23.8916 48.9964 22.7847 49.5714 21.3472C50.1464 19.8809 50.4339 18.1127 50.4339 16.0427C50.4339 13.9726 50.1464 12.2045 49.5714 10.7382C48.9964 9.24318 48.1626 8.12191 47.0701 7.3744C45.9776 6.59813 44.655 6.21 43.1025 6.21C41.5212 6.21 40.1843 6.59813 39.0918 7.3744C37.9993 8.12191 37.1655 9.24318 36.5905 10.7382C36.0443 12.2045 35.7711 13.9726 35.7711 16.0427C35.7711 18.1127 36.0443 19.8809 36.5905 21.3472C37.1655 22.7847 37.9993 23.8916 39.0918 24.6679C40.1843 25.4154 41.5212 25.7891 43.1025 25.7891Z" fill="white"/>
<path d="M5.76488 20.8351C6.78026 20.7828 7.63469 21.5219 8.04437 22.4524C8.19606 22.797 8.37528 23.1186 8.58204 23.4172C9.09955 24.136 9.78956 24.6966 10.6521 25.0991C11.5146 25.4729 12.5209 25.6597 13.6709 25.6597C14.5334 25.6597 15.2809 25.5447 15.9134 25.3147C16.5747 25.0847 17.0778 24.7541 17.4228 24.3228C17.7678 23.8916 17.9403 23.3597 17.9403 22.7272C17.9116 21.7497 17.4516 20.959 16.5603 20.3553C15.6691 19.7515 14.1309 19.1909 11.9459 18.6734C8.17953 17.8108 5.33323 16.6321 3.40694 15.137C1.5094 13.642 0.560636 11.687 0.560636 9.27193C0.560636 7.40314 1.06377 5.77874 2.07004 4.39871C3.07631 2.98993 4.48509 1.91179 6.29637 1.16427C8.13641 0.38801 10.2783 -0.00012207 12.7221 -0.00012207C15.0222 -0.00012207 17.0635 0.445511 18.846 1.33678C20.6573 2.19929 22.0948 3.43557 23.1586 5.0456C23.8703 6.0758 24.4052 7.22192 24.7631 8.48398C25.0818 9.6079 24.186 10.649 23.0187 10.696L19.5867 10.8341C18.5201 10.877 17.657 10.0457 17.2335 9.06588C17.1274 8.82045 17.0036 8.58726 16.8622 8.36629C16.4022 7.61877 15.7984 7.05814 15.0509 6.68438C14.3322 6.31062 13.4984 6.12374 12.5496 6.12374C11.2271 6.12374 10.1633 6.42563 9.35831 7.02939C8.55329 7.63315 8.19391 8.42379 8.28016 9.40131C8.30891 10.0626 8.55329 10.6232 9.0133 11.0832C9.47331 11.5145 10.0483 11.8739 10.7383 12.1614C11.4283 12.4201 12.3484 12.6932 13.4984 12.9808L14.0159 13.1101C17.7535 13.8864 20.6141 15.0508 22.5979 16.6033C24.6105 18.1559 25.6167 20.1396 25.6167 22.5547C25.6167 24.4522 25.0992 26.1054 24.0642 27.5142C23.0292 28.9229 21.5917 30.0011 19.7516 30.7486C17.9116 31.4674 15.8272 31.8267 13.4984 31.8267C10.9396 31.8267 8.66829 31.3955 6.6845 30.533C4.70072 29.6705 3.11944 28.4342 1.94066 26.8241C1.16175 25.7142 0.613642 24.4855 0.296344 23.1382C0.040425 22.0515 0.912948 21.0846 2.02792 21.0272L5.76488 20.8351Z" fill="white"/>
</svg>
