<svg width="100" height="100" viewBox="0 0 100 100" fill="none" xmlns="http://www.w3.org/2000/svg">
<rect width="100" height="100" fill="black"/>
<path d="M37.6543 80C28.7407 80 22.5247 75.1859 22.5247 65.91C22.5247 57.2211 28.037 52.1722 38.9444 48.4149L56.537 41.8395C55.9506 37.0254 53.7222 34.3249 47.3889 34.3249C40.1173 34.3249 33.4321 38.4344 29.4444 44.1879L21 31.9765C26.7469 25.7534 36.2469 20 48.5617 20C63.1049 20 71.5494 27.7495 71.5494 42.1918V61.9178C71.5494 64.501 72.4877 65.3229 74.5988 65.3229H78V78.7084H68.1481C61.9321 78.7084 56.3025 75.8904 56.3025 67.6712V63.7965C54.4259 71.3112 49.3827 80 37.6543 80ZM38.0062 63.4442C38.0062 66.1448 39.8827 67.6712 43.8704 67.6712C51.8457 67.6712 56.3025 63.6791 56.3025 56.634V52.6419L44.1049 57.6908C39.5309 59.5695 38.0062 61.2133 38.0062 63.4442Z" fill="white"/>
</svg>
