<svg xmlns:xlink="http://www.w3.org/1999/xlink" width="200" height="40" xmlns="http://www.w3.org/2000/svg" viewBox="0 40 1200 250" fill="inherit"><g stroke="#000000"><g stroke="#000000"><polygon fill="inherit" points="66.5 199.1 30.9 199.1 30.9 157.4 8.7 157.4 8.7 264.8 31.1 264.8 31.1 220.1 66.5 220.1 66.5 264.8 88.8 264.8 88.8 157.4 66.5 157.4 66.5 199.1" stroke="#000000"></polygon><polygon fill="inherit" points="1175 157.3 1175 229.6 1132.8 157.6 1132.7 157.3 1108.2 157.3 1108.2 264.6 1130.5 264.6 1130.5 190.8 1173.2 264.6 1197.3 264.6 1197.3 157.3 1175 157.3" stroke="#000000"></polygon><path fill="inherit" d="M864.2,218.9l12.5-35.5,12.3,35.5h-24.8ZM885.1,157.3h-17l-44.3,106.4-.3.8h24.2l11.6-27h35.3l11,26.7v.3h24.3l-44.8-106.9v-.3Z" stroke="#000000"></path><path fill="inherit" d="M644.8,201.5l-.2-.9h-55.4v19.9h33.7c-4.1,14.4-17.3,24.4-32.4,24.4s-33.5-15-33.5-33.5,15-33.8,33.5-33.8,20.5,4.9,27,13.5l.4.5h24.1l-.8-1.8c-6.1-13.6-17.4-23.8-31-28.9-2.6-1-5.3-1.7-8.1-2.3-3.7-.8-7.6-1.2-11.5-1.2s-.9,0-1.3,0c-1.3,0-2.7,0-4,.2-27.9,2.6-49.8,25.8-49.8,53.9s24.7,53.4,55.1,53.4,55.2-24.1,55.2-53.7-.3-6.4-.9-9.7" stroke="#000000"></path><path fill="inherit" d="M324.7,244.6c-18,0-32.7-15-32.7-33.4s14.7-33.7,32.7-33.7,33,15.1,33,33.7-14.8,33.4-33,33.4M324.7,157.3c-29.7,0-53.8,24.2-53.8,54s24.1,53.2,53.8,53.2,54-24,54-53.5-24.2-53.7-54-53.7" stroke="#000000"></path></g><path fill="inherit" d="M657.9,68.3c-.1-.4-.3-.4-.4-.4-.2,0-.4,0-.6.3-10.1,7.3-17.7,11.9-20.9,13.7l-.5-.2c0-.4,0-.8.3-1.1,5.8-6.4,5.7-10.2,4.9-12.7s-1.1-1-1.7-.5c-18.5,15.3-55.5,27.2-58.3,28.5-11.7,5.2-20.4,10.2-21.9,20.4-1,7,3.7,15,13.9,23.8.3.3.7.6,1,.9l1.2,1.1c.2.2.1.5-.1.5l-1.5.5c-8.5,2.6-15.1,6.7-20.2,10.9s0,.7.4.5c7.1-4.7,14.9-7.9,23.5-9.7h.6c0-.1.5.3.5.3,8.5,8.7,8.9,14.1,9.3,18.4v.3s.8,0,.8,0c.2,0,.3-.2.3-.3-.6-9.5-3.3-14.4-5.8-17.8-1.1-1.6-2.4-3-3.5-4.4l-.2-.2c-.6-.7-1.1-1.3-1.7-2-5.5-6.8-9.9-12.9-8-19.5,2-6.8,10.7-12.7,26.8-18,17.5-5.8,30.1-11.4,39.2-16.2h0c9.5-5.2,14.9-9.4,18.1-11.9.6-.5,2.4-1.9,2.8-2.2s.4.7.4,1.4c.3,3.1-.8,10.2-7.9,18.7-9.3,11.2-25,18.8-46.7,22.8-4.5.8-8.1,1.8-8,6,.1,3.6,0,7-1.5,8.6s-2.8.8-4.4.8-1.1,0-1.7-.1-1.1.7-.5,1.2,1,.8,1.4,1.1c1.5,1.2,4.6,4.3,6.5,7.8.2.4.4.7.6,1.1.7,1.6,1.4,3.1,2,4.7,2.3,6.2,3.5,12.3,3.5,18.8s.3.7.7.7h3.8c.4,0,.7-.4.7-.8,0-2.4,1.6-4.4,7.2-6.6,3.3-1.3,6.4-2.7,9.2-4.1l1.3-.6.3.2c4.3,2.3,7.2,5.5,10.2,8.2s.3.2.5.2h3.9c.6,0,.9-.8.5-1.2-3.3-3.3-6.9-6.3-10.9-8.9l-.8-.5.8-.5c3.4-2.1,6.1-4.2,8.2-6.2s-.2-1.5-.9-1c-2.6,2.2-5.7,4.3-9.3,6.4,0,0-.2,0-.2.1-2,1.2-4.2,2.3-6.6,3.2-.8.3-1.7.7-2.5,1s-1.6.6-2.4.8-1.5.5-2.2.7-1.4.4-2,.6-1.2.3-1.8.4-1,.2-1.5.3-.8.2-1.2.2c-.7.1-1.6.5-2.1-.4s-.3-1.5-.2-2.3c.2-1.5.7-3,1.6-4.3s1.5-1.8,2.5-2.5c1.1-.8,2.5-1.5,4.1-2,1.5-.5,3-1,4.5-1.5,11.8-4.4,20.7-10.3,26.5-17.6,2.4-3.1,4-5.9,5.1-8.6-9.4,16.1-29.1,22.9-37.8,25.2-2.5.7-5.1,1.2-7.9,1.8h-.4c0,0-.2-.2-.2-.2-.3-.3-.3-2.3,0-3.9.5-2.3,2.1-5.4,6.4-7,20.5-7.7,30.8-13.6,37.7-21.8,6.1-7.2,9.1-14.4,9-22.1v-.2s0-.1,0-.1c6.1-10.9,5.2-17.7,4.2-20.7ZM652.4,93.8c-.6,2.5-2.4,8.3-7.8,14.7-11.7,13.8-30.8,19.4-44.9,21.6h-.7c0,.1,0-.6,0-.6-.3-4.3,1-7.2,4.1-9.4,1.7-1.2,4.5-2.2,8.4-3.5,6-2,14.3-4.9,23.6-10.5,12-7.2,16.2-14,16.3-14l1-1.5c.7-.7,0,2.5-.1,3.1Z" stroke="#000000"></path></g></svg>